<svg width="29" height="28" viewBox="0 0 29 28" fill="none" xmlns="http://www.w3.org/2000/svg">
<path d="M4.16663 10.5V22.1667C4.16663 22.7855 4.41246 23.379 4.85004 23.8166C5.28763 24.2542 5.88112 24.5 6.49996 24.5H22.8333C23.4521 24.5 24.0456 24.2542 24.4832 23.8166C24.9208 23.379 25.1666 22.7855 25.1666 22.1667V10.5" stroke="#FFBF35" stroke-width="1.75"/>
<path d="M24.5659 3.5H19.9086L20.4919 9.33333C20.4919 9.33333 21.6586 10.5 23.4086 10.5C24.3272 10.5012 25.2147 10.1668 25.9041 9.55967C25.9769 9.49156 26.0312 9.40601 26.0619 9.31109C26.0925 9.21617 26.0984 9.11501 26.0791 9.01717L25.2554 4.08333C25.2279 3.92034 25.1435 3.77236 25.0173 3.66559C24.8911 3.55883 24.7312 3.50017 24.5659 3.5Z" stroke="#FFBF35" stroke-width="1.75"/>
<path d="M19.9086 3.5L20.4919 9.33333C20.4919 9.33333 19.3252 10.5 17.5752 10.5C15.8252 10.5 14.6586 9.33333 14.6586 9.33333V3.5H19.9086Z" stroke="#FFBF35" stroke-width="1.75"/>
<path d="M14.6585 3.5V9.33333C14.6585 9.33333 13.4919 10.5 11.7419 10.5C9.99186 10.5 8.8252 9.33333 8.8252 9.33333L9.40853 3.5H14.6585Z" stroke="#FFBF35" stroke-width="1.75"/>
<path d="M9.40851 3.5H4.75235C4.58667 3.49994 4.42635 3.55864 4.29988 3.66566C4.17342 3.77269 4.08902 3.9211 4.06168 4.0845L3.23918 9.01833C3.21996 9.11618 3.22593 9.21731 3.25654 9.31221C3.28716 9.40711 3.3414 9.49266 3.41418 9.56083C3.79685 9.89917 4.65201 10.5012 5.90851 10.5012C7.65851 10.5012 8.82518 9.3345 8.82518 9.3345L9.40851 3.5Z" stroke="#FFBF35" stroke-width="1.75"/>
</svg>
